<?xml version="1.0" standalone="no"?>
<!DOCTYPE svg PUBLIC "-//W3C//DTD SVG 20010904//EN"
 "http://www.w3.org/TR/2001/REC-SVG-20010904/DTD/svg10.dtd">
<svg version="1.0" xmlns="http://www.w3.org/2000/svg"
 width="512.000000pt" height="512.000000pt" viewBox="0 0 512.000000 512.000000"
 preserveAspectRatio="xMidYMid meet">
<metadata>
Created by potrace 1.16, written by Peter Selinger 2001-2019
</metadata>
<g transform="translate(0.000000,512.000000) scale(0.100000,-0.100000)"
fill="#000000" stroke="none">
<path d="M182 4937 c-170 -170 -183 -186 -180 -216 3 -31 8 -27 218 184 211
212 214 215 180 215 -32 0 -51 -15 -218 -183z"/>
<path d="M282 4837 c-265 -265 -283 -286 -280 -316 3 -30 12 -22 318 284 307
307 314 315 280 315 -33 0 -55 -20 -318 -283z"/>
<path d="M382 4737 c-360 -360 -383 -386 -380 -415 3 -31 17 -19 418 383 402
402 414 415 380 415 -33 0 -60 -25 -418 -383z"/>
<path d="M482 4637 c-456 -456 -483 -485 -480 -515 3 -31 21 -14 518 483 497
497 514 515 480 515 -33 0 -65 -30 -518 -483z"/>
<path d="M582 4537 c-551 -551 -583 -585 -580 -615 3 -31 26 -9 618 583 592
592 614 615 580 615 -33 0 -69 -34 -618 -583z"/>
<path d="M682 4437 c-647 -647 -683 -685 -680 -715 3 -31 31 -5 718 683 688
688 714 715 680 715 -33 0 -74 -39 -718 -683z"/>
<path d="M782 4337 c-742 -742 -783 -785 -780 -815 3 -31 35 0 818 783 783
783 814 815 780 815 -33 0 -79 -44 -818 -783z"/>
<path d="M882 4237 c-837 -837 -883 -885 -880 -915 3 -31 40 5 918 883 878
878 914 915 880 915 -33 0 -84 -49 -918 -883z"/>
<path d="M982 4137 c-933 -933 -983 -985 -980 -1015 3 -31 44 9 1018 983 973
973 1014 1015 980 1015 -33 0 -89 -53 -1018 -983z"/>
<path d="M1082 4037 c-1023 -1023 -1082 -1084 -1082 -1117 0 -34 11 -24 360
325 l360 360 -6 -70 -6 -70 -354 -355 c-330 -331 -354 -357 -354 -390 0 -34
11 -24 360 325 308 307 360 356 360 333 0 -15 5 -39 10 -54 11 -27 2 -37 -360
-399 -345 -345 -370 -372 -370 -405 0 -34 12 -23 384 349 249 248 386 379 391
371 4 -6 20 -19 36 -29 l28 -17 -420 -420 c-392 -392 -419 -421 -419 -454 0
-34 14 -20 448 412 l447 447 58 -7 57 -7 -505 -505 c-474 -474 -505 -507 -505
-540 0 -34 19 -16 543 508 l542 542 65 0 65 0 -153 -153 c-132 -132 -159 -155
-199 -165 -61 -17 -118 -74 -133 -134 -10 -40 -45 -78 -371 -404 -335 -335
-359 -361 -359 -394 0 -34 10 -25 354 319 l354 354 4 -62 3 -61 -357 -358
c-334 -333 -358 -359 -358 -392 0 -34 10 -24 363 327 l362 361 21 -43 20 -44
-383 -383 c-358 -358 -383 -385 -383 -418 0 -34 12 -22 403 368 l402 402 47
-18 47 -18 -449 -449 c-422 -422 -450 -452 -450 -485 0 -34 16 -19 483 448
l482 482 65 0 65 0 -548 -548 c-514 -514 -547 -549 -547 -582 0 -34 11 -24
370 335 204 204 367 358 361 344 -5 -14 -12 -50 -16 -81 l-7 -55 -354 -354
c-330 -330 -354 -356 -354 -389 0 -34 10 -25 354 319 l354 354 7 -39 c3 -21 8
-46 9 -55 2 -11 -128 -148 -360 -380 -340 -340 -364 -366 -364 -399 0 -34 11
-24 373 338 l373 372 32 -33 32 -33 -405 -404 c-379 -379 -405 -407 -405 -440
0 -34 14 -21 428 393 l428 428 58 -7 58 -7 -486 -486 c-456 -456 -486 -488
-486 -521 0 -34 19 -16 523 488 l522 522 65 0 65 0 -588 -588 c-552 -552 -587
-589 -587 -622 0 -34 23 -12 623 588 l622 622 65 0 65 0 -665 -665 c-640 -640
-664 -665 -630 -665 33 0 73 38 700 665 l665 665 65 0 65 0 -665 -665 c-640
-640 -664 -665 -630 -665 33 0 73 38 700 665 l665 665 65 0 65 0 -665 -665
c-640 -640 -664 -665 -630 -665 33 0 73 38 700 665 l665 665 65 0 65 0 -665
-665 c-640 -640 -664 -665 -630 -665 33 0 73 38 700 665 l665 665 65 0 65 0
-665 -665 c-640 -640 -664 -665 -630 -665 33 0 73 38 700 665 l665 665 65 0
65 0 -665 -665 c-640 -640 -664 -665 -630 -665 33 0 73 38 700 665 l665 665
65 0 65 0 -665 -665 c-640 -640 -664 -665 -630 -665 33 0 73 38 700 665 l665
665 65 0 65 0 -665 -665 c-640 -640 -664 -665 -630 -665 33 0 73 38 700 665
l665 665 65 0 65 0 -665 -665 c-640 -640 -664 -665 -630 -665 33 0 73 38 700
665 l665 665 65 0 65 0 -665 -665 c-640 -640 -664 -665 -630 -665 33 0 73 38
700 665 l665 665 65 0 65 0 -665 -665 c-640 -640 -664 -665 -630 -665 33 0 73
38 700 665 l665 665 65 0 65 0 -665 -665 c-640 -640 -664 -665 -630 -665 33 0
73 38 700 665 l665 665 65 0 65 0 -665 -665 c-640 -640 -664 -665 -630 -665
33 0 73 38 700 665 l665 665 65 0 65 0 -665 -665 c-640 -640 -664 -665 -630
-665 33 0 73 38 700 665 l665 665 65 0 65 0 -665 -665 c-640 -640 -664 -665
-630 -665 33 0 74 39 710 675 371 371 680 675 685 675 20 0 86 62 105 98 10
21 181 199 379 397 337 336 361 362 361 395 0 34 -10 25 -355 -320 l-355 -355
0 65 0 65 355 355 c331 331 355 357 355 390 0 34 -10 25 -359 -324 l-358 -358
-17 48 -16 49 375 375 c350 350 375 377 375 410 0 34 -12 23 -393 -356 l-392
-390 -42 21 -41 22 434 434 c407 407 434 436 434 469 0 34 -15 20 -463 -428
l-462 -462 -65 0 -65 0 528 528 c495 495 527 529 527 562 0 34 -21 14 -563
-528 l-562 -562 -65 0 -65 0 148 148 c145 145 149 148 206 160 104 22 165 82
177 176 l6 51 359 360 c334 335 359 363 359 395 0 34 -11 24 -354 -319 l-353
-353 -7 58 -7 58 361 361 c336 336 360 362 360 395 0 34 -11 24 -370 -335
-204 -203 -370 -365 -370 -358 0 6 -11 24 -24 40 l-25 29 395 395 c369 368
394 396 394 429 0 34 -13 22 -417 -381 l-418 -416 -49 14 -49 15 467 467 c437
437 466 468 466 501 0 34 -18 17 -503 -468 l-502 -502 -65 0 -65 0 568 568
c533 533 567 569 567 602 0 34 -11 24 -360 -325 l-360 -360 6 70 6 70 354 355
c330 331 354 357 354 390 0 34 -11 24 -360 -325 -336 -336 -360 -358 -360
-328 0 17 -4 43 -9 56 -9 22 19 52 360 393 345 345 369 371 369 404 0 34 -11
24 -382 -347 l-383 -382 -35 30 -35 29 418 418 c390 390 417 419 417 452 0 34
-15 20 -447 -410 l-448 -445 -58 5 -57 5 505 505 c474 474 505 507 505 540 0
34 -19 16 -543 -508 l-542 -542 -65 0 -65 0 608 608 c571 571 607 609 607 642
0 34 -24 11 -643 -608 l-642 -642 -65 0 -65 0 665 665 c640 640 664 665 630
665 -33 0 -73 -38 -700 -665 l-665 -665 -65 0 -65 0 665 665 c640 640 664 665
630 665 -33 0 -73 -38 -700 -665 l-665 -665 -65 0 -65 0 665 665 c640 640 664
665 630 665 -33 0 -73 -38 -700 -665 l-665 -665 -65 0 -65 0 665 665 c640 640
664 665 630 665 -33 0 -73 -38 -700 -665 l-665 -665 -65 0 -65 0 665 665 c640
640 664 665 630 665 -33 0 -73 -38 -700 -665 l-665 -665 -65 0 -65 0 665 665
c640 640 664 665 630 665 -33 0 -73 -38 -700 -665 l-665 -665 -65 0 -65 0 665
665 c640 640 664 665 630 665 -33 0 -73 -38 -700 -665 l-665 -665 -65 0 -65 0
665 665 c640 640 664 665 630 665 -33 0 -73 -38 -700 -665 l-665 -665 -65 0
-65 0 665 665 c640 640 664 665 630 665 -33 0 -73 -38 -700 -665 l-665 -665
-65 0 -65 0 665 665 c640 640 664 665 630 665 -33 0 -73 -38 -700 -665 l-665
-665 -65 0 -65 0 665 665 c640 640 664 665 630 665 -33 0 -73 -38 -700 -665
l-665 -665 -65 0 -65 0 665 665 c640 640 664 665 630 665 -33 0 -73 -38 -700
-665 l-665 -665 -65 0 -65 0 665 665 c640 640 664 665 630 665 -33 0 -73 -38
-700 -665 l-665 -665 -65 0 -65 0 665 665 c640 640 664 665 630 665 -33 0 -73
-38 -700 -665 l-665 -665 -65 0 -65 0 665 665 c640 640 664 665 630 665 -33 0
-93 -58 -1118 -1083z m2988 -1012 l-155 -155 -65 0 -65 0 150 150 149 149 60
4 c34 2 65 4 71 5 5 1 -60 -68 -145 -153z m-2805 -5 l-150 -150 -65 0 -65 0
150 150 150 150 65 0 65 0 -150 -150z m200 0 l-150 -150 -65 0 -65 0 150 150
150 150 65 0 65 0 -150 -150z m200 0 l-150 -150 -65 0 -65 0 150 150 150 150
65 0 65 0 -150 -150z m200 0 l-150 -150 -65 0 -65 0 150 150 150 150 65 0 65
0 -150 -150z m200 0 l-150 -150 -65 0 -65 0 150 150 150 150 65 0 65 0 -150
-150z m200 0 l-150 -150 -65 0 -65 0 150 150 150 150 65 0 65 0 -150 -150z
m200 0 l-150 -150 -65 0 -65 0 150 150 150 150 65 0 65 0 -150 -150z m200 0
l-150 -150 -65 0 -65 0 150 150 150 150 65 0 65 0 -150 -150z m200 0 l-150
-150 -65 0 -65 0 150 150 150 150 65 0 65 0 -150 -150z m200 0 l-150 -150 -65
0 -65 0 150 150 150 150 65 0 65 0 -150 -150z m200 0 l-150 -150 -65 0 -65 0
150 150 150 150 65 0 65 0 -150 -150z m200 0 l-150 -150 -65 0 -65 0 150 150
150 150 65 0 65 0 -150 -150z m200 0 l-150 -150 -65 0 -65 0 150 150 150 150
65 0 65 0 -150 -150z m200 0 l-150 -150 -65 0 -65 0 150 150 150 150 65 0 65
0 -150 -150z m-2719 -919 l-148 -148 -57 -6 c-32 -4 -66 -9 -77 -13 -10 -4 53
66 141 155 l160 161 65 0 65 0 -149 -149z m199 -1 l-150 -150 -65 0 -65 0 150
150 150 150 65 0 65 0 -150 -150z m200 0 l-150 -150 -65 0 -65 0 150 150 150
150 65 0 65 0 -150 -150z m200 0 l-150 -150 -65 0 -65 0 150 150 150 150 65 0
65 0 -150 -150z m200 0 l-150 -150 -65 0 -65 0 150 150 150 150 65 0 65 0
-150 -150z m200 0 l-150 -150 -65 0 -65 0 150 150 150 150 65 0 65 0 -150
-150z m200 0 l-150 -150 -65 0 -65 0 150 150 150 150 65 0 65 0 -150 -150z
m200 0 l-150 -150 -65 0 -65 0 150 150 150 150 65 0 65 0 -150 -150z m200 0
l-150 -150 -65 0 -65 0 150 150 150 150 65 0 65 0 -150 -150z m200 0 l-150
-150 -65 0 -65 0 150 150 150 150 65 0 65 0 -150 -150z m200 0 l-150 -150 -65
0 -65 0 150 150 150 150 65 0 65 0 -150 -150z m200 0 l-150 -150 -65 0 -65 0
150 150 150 150 65 0 65 0 -150 -150z m200 0 l-150 -150 -65 0 -65 0 150 150
150 150 65 0 65 0 -150 -150z m200 0 l-150 -150 -65 0 -65 0 150 150 150 150
65 0 65 0 -150 -150z m200 0 l-150 -150 -65 0 -65 0 150 150 150 150 65 0 65
0 -150 -150z"/>
<path d="M4080 1035 c-992 -992 -1034 -1035 -1000 -1035 33 0 89 54 1038 1003
952 952 1003 1005 1000 1035 -3 31 -45 -10 -1038 -1003z"/>
<path d="M4180 935 c-897 -897 -934 -935 -900 -935 33 0 85 50 938 903 856
856 903 905 900 935 -3 31 -41 -6 -938 -903z"/>
<path d="M4280 835 c-802 -802 -834 -835 -800 -835 33 0 80 45 838 803 761
761 803 805 800 835 -3 31 -36 -1 -838 -803z"/>
<path d="M4380 735 c-707 -707 -734 -735 -700 -735 33 0 75 40 738 703 666
666 703 705 700 735 -3 31 -32 4 -738 -703z"/>
<path d="M4480 635 c-611 -611 -634 -635 -600 -635 33 0 70 35 638 603 570
570 603 605 600 635 -3 31 -27 8 -638 -603z"/>
<path d="M4580 535 c-516 -516 -534 -535 -500 -535 33 0 66 31 538 503 475
475 503 505 500 535 -3 31 -22 13 -538 -503z"/>
<path d="M4680 435 c-421 -421 -434 -435 -400 -435 33 0 61 26 438 403 379
380 403 406 400 435 -3 31 -18 18 -438 -403z"/>
<path d="M4780 335 c-326 -326 -334 -335 -300 -335 33 0 56 21 338 303 284
284 303 306 300 336 -3 30 -13 21 -338 -304z"/>
<path d="M4880 235 c-230 -231 -234 -235 -200 -235 32 0 51 16 238 203 189
189 203 206 200 236 -3 31 -8 26 -238 -204z"/>
<path d="M4980 135 l-135 -135 35 0 c31 0 47 11 138 103 93 94 103 107 100
136 -3 31 -4 31 -138 -104z"/>
</g>
</svg>
